<svg xmlns="http://www.w3.org/2000/svg" viewBox="0 0 960 620" role="img" aria-labelledby="title desc">
<title id="title">Private art advisory dossier</title>
<desc id="desc">A museum-style editorial composition with artwork, provenance records, gallery label, and advisory notation.</desc>
<defs>
  <filter id="shadow" x="-20%" y="-20%" width="140%" height="140%"><feDropShadow dx="0" dy="20" stdDeviation="18" flood-color="#071522" flood-opacity=".24"/></filter>
  <linearGradient id="paper" x1="0" x2="1" y1="0" y2="1"><stop stop-color="#fffaf0"/><stop offset="1" stop-color="#e4d5b9"/></linearGradient>
</defs>
<rect width="960" height="620" fill="#efe4cf"/>
<rect x="28" y="28" width="904" height="564" fill="none" stroke="#ad8b49" stroke-opacity=".42"/>
<g filter="url(#shadow)">
  <rect x="88" y="72" width="452" height="362" fill="#fbf4e6"/>
  <rect x="116" y="102" width="396" height="256" fill="#172536"/>
  <path d="M128 292 C214 162 284 360 374 205 S466 222 508 130" fill="none" stroke="#ead9bb" stroke-width="26" stroke-linecap="round" opacity=".88"/>
  <path d="M142 172 C242 126 330 204 420 146 S486 124 506 118" fill="none" stroke="#b08a42" stroke-width="18" stroke-linecap="round" opacity=".94"/>
  <path d="M132 326 C240 300 310 428 438 326 S486 290 510 298" fill="none" stroke="#7d8d99" stroke-width="20" stroke-linecap="round" opacity=".64"/>
  <rect x="116" y="102" width="396" height="256" fill="none" stroke="#f7edda" stroke-width="10" opacity=".75"/>
  <rect x="126" y="382" width="112" height="8" fill="#152535"/>
  <rect x="126" y="404" width="270" height="3" fill="#71614d" opacity=".48"/>
</g>
<g filter="url(#shadow)">
  <rect x="516" y="112" width="340" height="408" fill="url(#paper)" transform="rotate(2 686 316)"/>
  <text x="552" y="166" font-family="Georgia, serif" font-size="34" fill="#132333" transform="rotate(2 552 166)">Collection Dossier</text>
  <rect x="554" y="202" width="214" height="5" fill="#a58444" transform="rotate(2 554 202)"/>
  <rect x="554" y="240" width="250" height="4" fill="#645949" opacity=".42" transform="rotate(2 554 240)"/>
  <rect x="554" y="270" width="218" height="4" fill="#645949" opacity=".38" transform="rotate(2 554 270)"/>
  <rect x="554" y="300" width="268" height="4" fill="#645949" opacity=".35" transform="rotate(2 554 300)"/>
  <rect x="554" y="330" width="178" height="4" fill="#645949" opacity=".32" transform="rotate(2 554 330)"/>
  <circle cx="738" cy="430" r="54" fill="none" stroke="#a58444" stroke-width="4" opacity=".58" transform="rotate(2 738 430)"/>
  <path d="M708 430c17-27 43-26 62-2M706 454c26 12 52 7 72-13" fill="none" stroke="#a58444" stroke-width="4" opacity=".66" transform="rotate(2 738 430)"/>
</g>
<text x="86" y="552" fill="#14304a" font-family="Georgia, serif" font-size="24" letter-spacing="3">PROVENANCE · MARKET DISCIPLINE · LEGACY</text>
</svg>
