<svg xmlns="http://www.w3.org/2000/svg" viewBox="0 0 960 620" role="img" aria-labelledby="title desc">
<title id="title">Private collection advisory dossier</title>
<desc id="desc">Editorial composition of provenance papers, a framed abstract expressionist work, archival labels, and an advisory seal.</desc>
<defs>
  <filter id="shadow" x="-20%" y="-20%" width="140%" height="140%"><feDropShadow dx="0" dy="18" stdDeviation="22" flood-color="#06111c" flood-opacity=".32"/></filter>
  <linearGradient id="paper" x1="0" x2="1" y1="0" y2="1"><stop stop-color="#fbf6ea"/><stop offset="1" stop-color="#ded0b3"/></linearGradient>
  <linearGradient id="navy" x1="0" x2="1" y1="0" y2="1"><stop stop-color="#101e2b"/><stop offset="1" stop-color="#253648"/></linearGradient>
</defs>
<rect width="960" height="620" fill="#111f2c"/>
<rect x="42" y="38" width="876" height="544" fill="none" stroke="#c3a15f" stroke-opacity=".42"/>
<g filter="url(#shadow)">
  <rect x="96" y="78" width="480" height="384" rx="2" fill="url(#paper)" transform="rotate(-3 336 270)"/>
  <rect x="132" y="122" width="218" height="18" fill="#182838" opacity=".85" transform="rotate(-3 241 131)"/>
  <rect x="132" y="164" width="330" height="4" fill="#9d814a" opacity=".85" transform="rotate(-3 297 166)"/>
  <rect x="132" y="190" width="372" height="3" fill="#6b6253" opacity=".38" transform="rotate(-3 318 191)"/>
  <rect x="132" y="216" width="320" height="3" fill="#6b6253" opacity=".34" transform="rotate(-3 292 217)"/>
  <rect x="132" y="242" width="390" height="3" fill="#6b6253" opacity=".31" transform="rotate(-3 327 243)"/>
  <circle cx="452" cy="354" r="56" fill="none" stroke="#9d814a" stroke-width="3" opacity=".55" transform="rotate(-3 452 354)"/>
  <path d="M420 352c20-30 43-28 66-4M418 376c29 14 57 10 80-13" fill="none" stroke="#9d814a" stroke-width="3" opacity=".65" transform="rotate(-3 452 354)"/>
</g>
<g filter="url(#shadow)">
  <rect x="378" y="122" width="430" height="338" fill="#efe5cf"/>
  <rect x="402" y="146" width="382" height="290" fill="#172536"/>
  <path d="M408 374 C482 260 550 420 618 278 S750 304 782 196" fill="none" stroke="#e6d7bd" stroke-width="20" stroke-linecap="round" opacity=".82"/>
  <path d="M426 220 C514 182 586 238 662 184 S742 176 776 150" fill="none" stroke="#9e7a38" stroke-width="14" stroke-linecap="round" opacity=".9"/>
  <path d="M420 408 C510 378 584 474 682 386 S754 340 778 348" fill="none" stroke="#76899a" stroke-width="18" stroke-linecap="round" opacity=".6"/>
  <rect x="430" y="170" width="48" height="142" fill="#f5ebd9" opacity=".18"/>
  <rect x="676" y="238" width="62" height="164" fill="#f5ebd9" opacity=".12"/>
</g>
<g>
  <rect x="596" y="438" width="228" height="82" fill="#fbf6ea" opacity=".96"/>
  <rect x="616" y="462" width="112" height="7" fill="#162636"/>
  <rect x="616" y="482" width="162" height="3" fill="#6b6253" opacity=".48"/>
  <rect x="616" y="498" width="130" height="3" fill="#6b6253" opacity=".36"/>
</g>
<text x="98" y="532" fill="#d4b873" font-family="Georgia, serif" font-size="22" letter-spacing="4">PROVENANCE · VALUATION · STEWARDSHIP</text>
</svg>
